<?xml version="1.0" standalone="no"?>
<!DOCTYPE svg PUBLIC "-//W3C//DTD SVG 20010904//EN"
 "http://www.w3.org/TR/2001/REC-SVG-20010904/DTD/svg10.dtd">
<svg version="1.0" xmlns="http://www.w3.org/2000/svg"
 width="363.000000pt" height="363.000000pt" viewBox="0 0 363.000000 363.000000"
 preserveAspectRatio="xMidYMid meet">
<metadata>
Created by potrace 1.14, written by Peter Selinger 2001-2017
</metadata>
<g transform="translate(0.000000,363.000000) scale(0.100000,-0.100000)"
fill="#000000" stroke="none">
<path d="M1315 3174 c-27 -2 -156 -8 -285 -14 -534 -25 -851 -92 -888 -187
-39 -100 -73 -303 -102 -608 -11 -121 -25 -249 -31 -285 -14 -87 -6 -466 14
-658 59 -566 92 -739 149 -787 80 -68 332 -118 723 -144 771 -53 1836 -30
2271 49 206 37 293 74 318 135 45 106 97 485 127 920 5 83 13 172 16 200 3 27
1 79 -5 115 -6 36 -16 146 -22 245 -18 300 -65 647 -105 782 -10 32 -26 61
-45 76 -80 68 -377 121 -830 148 -168 10 -1202 20 -1305 13z m735 -539 c188
-36 363 -108 532 -221 175 -117 383 -337 501 -531 l38 -62 -50 -80 c-163 -263
-401 -484 -660 -611 -121 -60 -218 -93 -351 -120 -92 -19 -127 -21 -285 -17
-185 5 -239 14 -405 69 -215 70 -457 236 -633 433 -94 106 -227 296 -227 325
0 24 109 188 185 280 263 315 594 502 973 550 91 12 279 4 382 -15z"/>
<path d="M1740 2309 c-81 -10 -164 -45 -228 -97 -94 -76 -131 -128 -168 -232
-29 -80 -32 -208 -8 -291 50 -170 182 -301 349 -345 64 -18 186 -18 250 0 160
42 292 167 344 323 30 91 29 225 -4 317 -79 225 -291 354 -535 325z m484 -399
c89 -78 26 -219 -93 -207 -85 9 -132 94 -96 171 34 72 128 90 189 36z"/>
</g>
</svg>
